<?xml version="1.0" encoding="utf-8"?>
<!-- Generator: Adobe Illustrator 26.1.0, SVG Export Plug-In . SVG Version: 6.00 Build 0)  -->
<svg version="1.1" id="Layer_1" xmlns="http://www.w3.org/2000/svg" xmlns:xlink="http://www.w3.org/1999/xlink" x="0px" y="0px"
	 width="24px" height="24px" viewBox="0 0 24 24" style="enable-background:new 0 0 24 24;" xml:space="preserve">
<style type="text/css">
	.st0{fill:#FCB817;}
	.st1{fill:#8EC740;}
	.st2{fill:#00ABBC;}
</style>
<g>
	<path class="st0" d="M4.58,2.04C4.57,2.07,4.52,2.21,4.46,2.35c-0.3,0.76-3.09,8.08-3.6,9.45C0.41,13.04,0,14.21,0,14.3
		c0,0.07,4.8,1.88,4.85,1.83c0.06-0.06,0.1-2.62,0.1-7.05l0-3.35l3.44-0.02c3.35-0.01,5.57-0.05,5.71-0.09
		c0.06-0.02,0.03-0.03-0.29-0.16C12.94,5.14,7.05,2.9,5.41,2.29c-0.37-0.14-0.7-0.26-0.74-0.28C4.61,1.99,4.6,1.99,4.58,2.04
		L4.58,2.04z"/>
	<path class="st1" d="M5.42,12.82l0.01,6.6l1.92,0.01c2.05,0.01,3.41-0.02,3.55-0.07c0.05-0.02,0.08-0.05,0.08-0.08
		c0-0.06-0.17-0.56-1.2-3.4c-1.97-5.43-2.3-6.42-2.2-6.53c0.07-0.09,1.77-0.73,5.35-2.02c1.54-0.55,2.63-0.95,2.78-1.01
		c0.06-0.02,0.07-0.04,0.05-0.05c-0.02-0.01-2.35-0.03-5.19-0.03L5.41,6.22L5.42,12.82L5.42,12.82z"/>
	<path class="st2" d="M20.12,5.31c0.3-0.08,0.34-0.08,0.38,0.03c0.26,0.61,3.42,9.35,3.5,9.66c0.01,0.06,0,0.08-0.09,0.16
		c-0.14,0.13-0.63,0.46-1.19,0.83l-0.45,0.29l0.02,0.28c0.01,0.16,0.04,0.51,0.06,0.8c0.03,0.28,0.05,0.63,0.06,0.78l0.02,0.26
		l-0.1,0.06c-0.2,0.12-0.82,0.36-2.78,1.07c-1.49,0.54-3.46,1.25-4.84,1.75c-0.63,0.23-1.37,0.49-1.64,0.58
		c-0.47,0.16-0.48,0.17-0.51,0.12c-0.09-0.17-0.77-2.03-2.76-7.54c-0.82-2.26-1.67-4.7-1.67-4.75c0-0.01,0.04-0.04,0.09-0.06
		C8.74,9.4,19.78,5.4,20.12,5.31L20.12,5.31z M23.34,16.18c-0.19,0.13-0.38,0.27-0.43,0.32l-0.08,0.09l0.01,0.27
		c0.01,0.35,0.03,0.58,0.06,0.64c0.02,0.05,0.03,0.05,0.07-0.01c0.11-0.13,0.77-1.55,0.72-1.54C23.68,15.95,23.53,16.06,23.34,16.18
		L23.34,16.18z"/>
</g>
</svg>
