<?xml version="1.0" standalone="no"?>
<!DOCTYPE svg PUBLIC "-//W3C//DTD SVG 20010904//EN"
 "http://www.w3.org/TR/2001/REC-SVG-20010904/DTD/svg10.dtd">
<svg version="1.0" xmlns="http://www.w3.org/2000/svg"
 width="700.000000pt" height="700.000000pt" viewBox="0 0 700.000000 700.000000"
 preserveAspectRatio="xMidYMid meet">
<metadata>
Created by potrace 1.14, written by Peter Selinger 2001-2017
</metadata>
<g transform="translate(0.000000,700.000000) scale(0.100000,-0.100000)"
fill="#000000" stroke="none">
<path d="M1335 6403 c-4 -10 -29 -76 -56 -148 -27 -71 -54 -139 -59 -150 -5
-11 -21 -51 -35 -90 -14 -38 -29 -79 -34 -90 -8 -18 -93 -240 -183 -480 -17
-44 -34 -89 -39 -100 -10 -23 -180 -470 -210 -555 -11 -30 -25 -64 -30 -75 -5
-11 -45 -117 -89 -235 -45 -118 -85 -224 -90 -235 -12 -27 -259 -686 -300
-800 -18 -49 -40 -112 -50 -140 -103 -279 -162 -467 -152 -477 35 -35 1341
-528 1398 -528 8 0 14 11 15 28 0 15 2 47 4 72 8 107 17 1067 19 1957 0 529 3
964 6 966 3 3 433 8 955 11 862 5 1469 13 1615 21 30 2 66 3 79 4 34 1 18 13
-54 41 -33 13 -73 29 -90 36 -16 7 -61 24 -100 37 -38 14 -117 43 -175 65 -58
22 -170 65 -250 95 -80 30 -154 58 -165 62 -11 4 -24 9 -30 11 -5 2 -93 35
-195 74 -102 39 -201 77 -220 84 -84 31 -644 242 -676 256 -12 5 -84 32 -160
60 -171 63 -292 109 -319 120 -16 7 -124 48 -311 117 -6 2 -15 -4 -19 -14z"/>
<path d="M5915 5463 c-25 -5 -253 -81 -280 -93 -11 -5 -74 -28 -140 -51 -66
-23 -248 -88 -405 -144 -157 -57 -343 -124 -415 -150 -71 -25 -137 -49 -145
-52 -8 -3 -19 -7 -25 -9 -5 -1 -66 -23 -135 -49 -69 -25 -152 -55 -185 -66
-33 -11 -87 -31 -120 -44 -33 -13 -141 -53 -240 -88 -99 -36 -247 -90 -330
-120 -82 -31 -251 -92 -375 -137 -413 -150 -715 -264 -738 -278 -12 -8 42
-178 178 -557 16 -44 58 -165 95 -270 37 -104 82 -230 100 -280 18 -49 65
-180 105 -290 166 -464 252 -701 260 -720 4 -11 22 -60 40 -110 17 -49 40
-112 50 -140 23 -62 84 -228 146 -400 25 -71 55 -152 65 -180 73 -194 131
-352 133 -360 2 -5 7 -21 13 -35 5 -14 27 -71 47 -127 56 -150 41 -142 182
-94 177 60 394 137 437 154 20 9 38 16 40 16 4 0 41 12 77 26 19 8 69 26 110
40 41 14 82 28 90 32 8 3 20 7 25 9 6 1 147 53 315 114 168 61 310 113 315
114 6 2 17 6 25 9 8 3 161 59 340 123 297 106 410 147 465 169 11 5 22 9 25
10 3 1 14 5 25 9 11 5 92 35 180 68 88 34 186 74 218 90 l59 29 -7 97 c-3 53
-8 121 -11 149 -5 59 -10 125 -20 258 -3 50 -8 92 -9 95 -8 13 18 32 210 159
215 144 295 205 295 227 0 12 -155 461 -200 579 -11 28 -49 133 -85 235 -119
333 -606 1671 -671 1844 -35 93 -69 175 -75 183 -12 13 -18 14 -54 6z"/>
<path d="M1584 5178 c-4 -7 -5 -1558 -1 -3063 l2 -780 665 0 c645 0 896 6 933
20 9 4 17 13 17 21 0 21 -49 165 -193 564 -74 206 -156 434 -182 505 -26 72
-76 210 -111 308 -404 1118 -504 1413 -504 1492 0 33 1 33 124 84 68 28 204
80 302 116 99 37 199 75 224 85 45 18 196 73 645 235 455 165 920 333 1010
367 l90 33 -50 5 c-44 4 -714 8 -2428 14 -296 1 -540 -2 -543 -6z"/>
<path d="M6821 2289 c-41 -27 -95 -66 -119 -86 l-44 -36 6 -121 c5 -123 11
-156 27 -156 8 0 160 303 182 360 3 8 12 32 21 53 9 20 13 37 9 37 -5 0 -41
-23 -82 -51z"/>
</g>
</svg>
